<svg width="64" height="64" viewBox="0 0 64 64" fill="none" xmlns="http://www.w3.org/2000/svg">
<rect width="64" height="64" rx="12" fill="#8A00FF"/>
<path d="M32.0001 16.9131C32.0001 16.9131 25.0436 20.4783 22.2609 27.8261C19.4783 35.1739 22.2609 44.2609 22.2609 44.2609M32.0001 16.9131C32.0001 16.9131 38.9566 20.4783 41.7392 27.8261C44.5218 35.1739 41.7392 44.2609 41.7392 44.2609M32.0001 16.9131L32.0001 27.8261M22.2609 44.2609C22.2609 44.2609 26.087 47.087 32.0001 47.087C37.9131 47.087 41.7392 44.2609 41.7392 44.2609M22.2609 44.2609L16.8696 39.7391M41.7392 44.2609L47.1305 39.7391M22.2609 27.8261H16.8696M41.7392 27.8261H47.1305M32.0001 27.8261C32.0001 27.8261 27.1305 27.8261 25.0436 32.4348C22.9566 37.0435 25.0436 41.0435 32.0001 41.0435C38.9566 41.0435 41.0436 37.0435 38.9566 32.4348C36.8696 27.8261 32.0001 27.8261 32.0001 27.8261Z" stroke="#FFD700" stroke-width="2.5" stroke-linecap="round" stroke-linejoin="round"/>
<path d="M27.5 21L25 18" stroke="#FFD700" stroke-width="2" stroke-linecap="round"/>
<path d="M36.5 21L39 18" stroke="#FFD700" stroke-width="2" stroke-linecap="round"/>
</svg>